<?xml version="1.0" standalone="no"?>
<!DOCTYPE svg PUBLIC "-//W3C//DTD SVG 20010904//EN"
 "http://www.w3.org/TR/2001/REC-SVG-20010904/DTD/svg10.dtd">
<svg version="1.0" xmlns="http://www.w3.org/2000/svg"
 width="200.000000pt" height="200.000000pt" viewBox="0 0 200.000000 200.000000"
 preserveAspectRatio="xMidYMid meet">

<g transform="translate(0.000000,200.000000) scale(0.100000,-0.100000)"
fill="white" stroke="#363368">
<path stroke-width="110" d="M 835 1876 c -146 -33 -276 -106 -386 -216 c -124 -123 -204 -283 -229 -459 c -15 -102 -13 -1004 2 -1037 c 12 -25 15 -26 64 -21 c 69 7 108 29 174 97 c 71 74 114 100 167 100 c 64 0 91 -15 173 -94 c 89 -86 144 -112 219 -103 c 69 8 116 36 186 107 c 67 70 105 90 167 90 c 55 0 96 -25 175 -106 c 48 -49 72 -66 114 -78 c 60 -18 88 -20 109 -6 c 13 8 15 79 15 537 c 0 473 -2 535 -18 592 c -46 166 -102 265 -217 381 c -96 96 -188 153 -315 196 c -67 23 -101 27 -210 30 c -86 3 -150 -1 -190 -10 z"/>
<path fill="#363368" d="M774 1446 c-145 -68 -177 -260 -63 -375 118 -118 321 -78 386 76 19
46 16 140 -6 188 -55 119 -195 168 -317 111z m165 -45 c10 -7 6 -11 -17 -16
-69 -15 -112 -74 -112 -152 0 -66 34 -115 96 -139 38 -14 43 -19 28 -25 -58
-23 -140 -2 -186 47 -80 86 -60 209 47 275 32 20 119 26 144 10z"/>
<path fill="#363368" d="M1345 1451 c-120 -54 -169 -200 -107 -322 106 -210 418 -147 439 89
9 100 -51 199 -143 238 -47 20 -141 17 -189 -5z m163 -50 c10 -6 5 -10 -16
-14 -43 -9 -100 -62 -113 -107 -23 -77 22 -166 98 -191 26 -8 32 -14 22 -20
-25 -15 -92 -10 -136 12 -123 60 -124 252 -1 312 35 18 124 22 146 8z"/>
</g>
</svg>
