<svg width="31" height="30" viewBox="0 0 31 30" fill="none" xmlns="http://www.w3.org/2000/svg">
<rect width="30" height="30" fill="#FFFDFD"/>
<path d="M2.80002 11.79C6.72002 11.79 9.70002 12.52 15.96 14.33C20.72 15.68 24.17 16.7 27.62 16.7C28.56 16.7 29.34 16.56 30.01 16.31V0H0.0100098V12C0.90001 11.87 1.84001 11.8 2.81001 11.8L2.80002 11.79Z" fill="#B3D6E6"/>
<path d="M27.53 20.47C23.8 20.47 20.44 19.79 14 17.99C9.62 16.69 6.16 15.51 2.8 15.51C1.72 15.51 0.79 15.67 0 15.98V29.99H30V20.32C29.19 20.42 28.36 20.47 27.52 20.47H27.53Z" fill="#2A528E"/>
<path d="M23 11C25.2091 11 27 9.20914 27 7.00001C27 4.79087 25.2091 3 23 3C20.7909 3 19 4.79087 19 7.00001C19 9.20914 20.7909 11 23 11Z" fill="#F4F0CD"/>
</svg>
